<svg xmlns="http://www.w3.org/2000/svg" xmlns:xlink="http://www.w3.org/1999/xlink" width="1050.561" height="631.758" viewBox="0 0 1050.561 631.758"><defs><style>.a{fill:url(#a);}.b{fill:#42e8e0;opacity:0.1;}</style><radialGradient id="a" cx="1.022" cy="0.151" r="1.218" gradientTransform="matrix(-0.601, 0, 0, 1, -0.035, 0)" gradientUnits="objectBoundingBox"><stop offset="0" stop-color="#ff2c9c"/><stop offset="0.03" stop-color="#f52e9f"/><stop offset="0.202" stop-color="#c53eb0"/><stop offset="0.374" stop-color="#9d4abe"/><stop offset="0.541" stop-color="#7e54c8"/><stop offset="0.704" stop-color="#685bd0"/><stop offset="0.859" stop-color="#5b5fd5"/><stop offset="1" stop-color="#5761d7"/></radialGradient></defs><g transform="translate(0 -39.188)"><path class="a" d="M1021.438,40.128a8.691,8.691,0,0,0-7.863,0c-1.632.942-2.036,2.325-1.215,3.484L890.625,113.9l0,88.72-29.656,17.121,0,96.5L759.377,374.889l-15.83-9.138,78.337-45.228,0-52.9-.312-.18-89.067-51.421V198.084L782.878,169a8.786,8.786,0,0,0,7.177-.324c2.171-1.254,2.171-3.286,0-4.538a8.685,8.685,0,0,0-7.863,0c-1.958,1.129-2.133,2.887-.56,4.143l-50.367,29.081V216.74l.31.18,89.067,51.421,0,51.463L761.45,353.978l0-22.039,27.134-15.666a8.786,8.786,0,0,0,7.177-.324c2.171-1.254,2.171-3.286,0-4.54a8.69,8.69,0,0,0-7.863,0c-1.957,1.131-2.133,2.889-.56,4.144l-27.132,15.667,0,23.475-17.9,10.336L721.135,352.81V314.43l39.93-23.055V264.843l-.312-.18L676.7,216.134c1.574-1.255,1.4-3.013-.559-4.144a8.691,8.691,0,0,0-7.863,0c-2.171,1.254-2.171,3.286,0,4.54a8.786,8.786,0,0,0,7.177.324l84.367,48.708v25.1L721.135,312.99l0-26.453-.312-.182L669.4,256.666c1.574-1.255,1.4-3.013-.558-4.145a8.69,8.69,0,0,0-7.863,0c-2.171,1.254-2.171,3.286,0,4.54a8.792,8.792,0,0,0,7.177.322l51.738,29.871,0,64.837-14.869-8.585-24.5,14.144-22.19-12.81v-31.13l-.312-.18-58.66-33.868V250.317a7.681,7.681,0,0,0,3.309-.905c2.171-1.254,2.173-3.286,0-4.54a8.687,8.687,0,0,0-7.862,0c-2.171,1.254-2.171,3.287,0,4.54a7.672,7.672,0,0,0,3.307.905v30.064l.312.18,58.66,33.868v29.692L561.619,289l0-58.427L613.4,200.682l47.517,0,.144-.082,81.534-47.072a8.793,8.793,0,0,0,7.177-.324c2.171-1.254,2.171-3.286,0-4.54a8.691,8.691,0,0,0-7.863,0c-1.958,1.131-2.133,2.889-.56,4.144L660.58,199.435l-45.025,0L765.339,112.96a8.786,8.786,0,0,0,7.177-.324c2.171-1.254,2.171-3.286,0-4.54a8.687,8.687,0,0,0-7.862,0c-1.959,1.131-2.134,2.889-.56,4.144L560.376,229.856l0,59.864.312.18,118.593,68.47-23.871,13.78-202.473-116.9,0-69.752-.312-.182L383.77,145.564c1.572-1.255,1.4-3.013-.56-4.144a8.691,8.691,0,0,0-7.863,0c-2.171,1.254-2.171,3.286,0,4.54a8.786,8.786,0,0,0,7.177.324l69.169,39.934,0,69.754.31.18L654.165,372.871,631.44,385.99,431.206,270.385H311.8L237.164,227.3l0-66.217a6.98,6.98,0,0,0,2.159-.76c2.171-1.252,2.171-3.285,0-4.538a8.691,8.691,0,0,0-7.863,0c-2.171,1.254-2.171,3.287,0,4.538a8.259,8.259,0,0,0,4.46.912l0,66.782.312.18,75.231,43.435,119.41,0,169.03,97.59-34,0-57.688-33.308H463.777l-.144.084L402,371.577a8.793,8.793,0,0,0-7.177.324c-2.171,1.254-2.171,3.287,0,4.54a8.69,8.69,0,0,0,7.863,0c1.958-1.131,2.133-2.891.559-4.144l60.862-35.14h43.77l57.69,33.308,36.486,0L630.2,386.708l-60.656,35.019-17.247-9.958V385.633l-43.814-25.3c1.574-1.255,1.4-3.013-.559-4.145a8.69,8.69,0,0,0-7.863,0c-2.171,1.254-2.171,3.286,0,4.54a8.785,8.785,0,0,0,7.177.322l43.814,25.3v24.7l-46.724-26.977H482.2l-.144.084-26.378,15.23a8.8,8.8,0,0,0-7.179.322c-2.171,1.254-2.171,3.286,0,4.54a8.691,8.691,0,0,0,7.863,0c1.957-1.131,2.133-2.889.559-4.145l25.613-14.787h21.458L568.3,422.445l-11.684,6.746L593.9,450.715l-17.455,10.077h-26.4l-18.891-10.9c1.506-1.252,1.3-2.98-.629-4.1a8.7,8.7,0,0,0-7.863,0c-2.171,1.254-2.171,3.287,0,4.54a8.765,8.765,0,0,0,7.263.282l19.786,11.425h24.58l-44.519,25.7L425.02,427.265l-75.371,0-.144.084-42.434,24.5a8.79,8.79,0,0,0-7.179.324c-2.171,1.254-2.171,3.285,0,4.538a8.687,8.687,0,0,0,7.862,0c1.959-1.129,2.134-2.889.56-4.143l41.671-24.058,74.7,0,80.788,46.643H470.893l-33.8-19.514c1.574-1.254,1.4-3.013-.559-4.145a8.691,8.691,0,0,0-7.863,0c-2.171,1.254-2.171,3.287,0,4.54a8.793,8.793,0,0,0,7.177.324L470.559,476.4h37.071l20.892,12.062-53.179,30.7H305.388l-132.036-76.23c1.574-1.254,1.4-3.013-.559-4.144a8.7,8.7,0,0,0-7.863,0c-2.171,1.254-2.171,3.286,0,4.54a8.789,8.789,0,0,0,7.179.324l132.945,76.756,168.133,0-21.1,12.181H326.283l-.144.084L264.1,568.492a8.8,8.8,0,0,0-7.179.322c-2.171,1.254-2.171,3.287,0,4.54a8.69,8.69,0,0,0,7.863,0c1.958-1.131,2.133-2.889.559-4.144l61.277-35.378,125.808,0,.144-.084,142.572-82.313,15.828,9.14-149.894,86.54H351.455l-.144.084L218.9,623.645l-183.44,0L0,603.175v1.438l35.126,20.279,184.109,0,.144-.084,83.094-47.974,0,28.395L247.7,636.85a8.79,8.79,0,0,0-7.179.322c-2.171,1.254-2.171,3.286,0,4.54a8.691,8.691,0,0,0,7.863,0c1.958-1.131,2.133-2.889.56-4.144l54.771-31.624,0-29.666h-.285l48.357-27.921H461.41l.145-.084,150.659-86.983,17.979,10.381L337.859,640.45v30.5H339.1l0-29.778L631.438,472.39l22.216,12.826-150.8,87.063v15.566l-26.735,15.436v35.8l-51.849,29.932a8.793,8.793,0,0,0-7.177.324,3.209,3.209,0,0,0-1.5,1.611h10.842a2.825,2.825,0,0,0-.917-1.217L477.366,639.8V604l25.49-14.718,0,57.327,15.046,8.686-27.11,15.652h2.488l25.867-14.934,25.865,14.934h2.49l-43.4-25.058,0-72.89,150.8-87.065,20.223,11.677L568.406,559.223a8.8,8.8,0,0,0-7.179.322c-2.171,1.254-2.171,3.286,0,4.54a8.69,8.69,0,0,0,7.863,0c1.958-1.131,2.133-2.889.56-4.144l106.714-61.612L695.89,509.6,568.238,583.3H533.543a3.191,3.191,0,0,0-1.522-1.646,8.69,8.69,0,0,0-7.863,0c-2.171,1.254-2.171,3.286,0,4.538a8.679,8.679,0,0,0,7.863,0,3.187,3.187,0,0,0,1.522-1.648h35.027l.145-.084,128.417-74.142,7.883,4.551,6.065-3.5,30.585,17.658V553.6L716.4,568.189v-.067h-39.65l-.145.084-43.509,25.121a8.786,8.786,0,0,0-7.177.324c-2.171,1.252-2.171,3.285,0,4.538a8.69,8.69,0,0,0,7.863,0c1.958-1.129,2.133-2.889.559-4.145l42.742-24.678h37.277l-74.285,42.889a8.763,8.763,0,0,0-7.333.25c-2.171,1.254-2.171,3.285,0,4.538a8.69,8.69,0,0,0,7.863,0c1.91-1.1,2.136-2.807.685-4.055L733.945,559.5l0,11.824-55.126,31.828V625.62l-44.882,25.914a8.784,8.784,0,0,0-7.179.322c-2.171,1.254-2.171,3.286,0,4.54a8.691,8.691,0,0,0,7.864,0c1.958-1.131,2.133-2.891.56-4.144l44.882-25.914V603.866l55.126-31.827,0-13.262,7.722-4.458V528.308L712.326,510.65l20.1-11.605L795.36,535.38l0,41.308-42.733,24.672a8.764,8.764,0,0,0-7.333.25c-2.171,1.252-2.171,3.285,0,4.539a8.691,8.691,0,0,0,7.863,0c1.91-1.1,2.136-2.807.685-4.055l41.518-23.969v33.368l-32.8,18.936,0,40.517H763.8l0-39.8,31.555-18.218,0,58.017H796.6l0-136.284L733.67,498.327l22.57-13.03,82.255,47.491,0,113.1,39.54,22.829v2.229h1.245V668l-39.54-22.829,0-113.1-82.255-47.491,16.727-9.658,111.011,64.091,0,96.5,61.372,35.432h2.488L886.465,634.8l0-96.5L775.456,474.2l27.11-15.653,184.7,106.635,0,48.018,63.3,36.545v-1.436l-62.055-35.828,0-48.018-103.888-59.98h82.161l83.78,48.37v-1.436l-83.448-48.179H882.464l-78.654-45.41,31.508-18.192,67.611,39.035,108.558,0,39.074,22.561V499.8L1042,494.851l8.566,0V493.6l-10.721,0-28.02-16.179-108.558,0-18.919-10.924H930.5l.144-.084,23.151-13.365,96.45,0,.32.184v-1.429l-94.613,0,26.061-15.047a8.79,8.79,0,0,0,7.179-.324c2.171-1.252,2.171-3.285,0-4.538a8.69,8.69,0,0,0-7.864,0c-1.959,1.131-2.133,2.889-.558,4.144l-50.6,29.214H882.188l-45.624-26.341,16.86-9.733-10.849-6.263h31.538l41.222,23.8c-1.574,1.255-1.4,3.015.558,4.144a8.691,8.691,0,0,0,7.863,0c2.171-1.254,2.171-3.286,0-4.54a8.793,8.793,0,0,0-7.177-.322L874.445,421.68H840.419l-23.072-13.321,14.188-8.193H856.7l22.125-12.773h16.513l37.29,21.528c-1.674,1.259-1.536,3.062.46,4.216a8.7,8.7,0,0,0,7.862,0c2.173-1.255,2.173-3.286,0-4.54a8.812,8.812,0,0,0-7.056-.382l-38.223-22.067H878.5L856.37,398.923H833.692l45.36-26.189h24.492L954.6,402.208h95.965v-1.245l-95.632,0-51.052-29.475H878.717l-.144.082L816.1,407.641l-16.391-9.464L870.3,357.42h49.79l41.075,23.715h89.394V379.89H961.5l-38.92-22.47h127.981v-1.245H869.969l-.145.084-71.358,41.2-18.623-10.753,98.438-56.832,172.28,0v-1.245l-125.544,0,125.544-72.483v-1.436L922.529,328.63H879.186l93.332-53.885V262.868l44.658-25.782a8.785,8.785,0,0,0,7.177-.324c2.171-1.254,2.171-3.285,0-4.538a8.686,8.686,0,0,0-7.862,0c-1.959,1.129-2.134,2.889-.56,4.144l-24.317,14.039V217.86l58.947-34.033V182.39l-60.192,34.753v33.982l-19.1,11.026v11.877l-94.1,54.326.312.541L778.6,385.989l-17.98-10.381,101.589-58.651,0-96.5,188.348-108.742v-1.438L891.868,201.9l0-87.281,121.455-70.123c.088.058.154.121.249.175a8.691,8.691,0,0,0,7.863,0C1023.609,43.415,1023.609,41.382,1021.438,40.128Zm-170.5,389.06L705.016,513.434,559.1,429.191l145.918-84.246Z" transform="translate(0 0)"/><path class="b" d="M1001.376,155.754l-25.94,14.977,0,48.252L745.018,352.012,727.51,341.9,846.367,273.28V261.013l21.073-12.167V220.631L908.3,197.037a6.935,6.935,0,0,0,5.657-.254c1.712-.989,1.712-2.591,0-3.579a6.84,6.84,0,0,0-6.2,0c-1.544.891-1.683,2.278-.441,3.265l-40.865,23.594,0,28.216-20.09,11.6,0-45.183-.247-.142-11.612-6.7,69.675-40.228V122.384l49.5-28.577a6.92,6.92,0,0,0,5.657-.256c1.712-.988,1.712-2.59,0-3.577a6.851,6.851,0,0,0-6.2,0c-1.544.891-1.681,2.278-.441,3.265l-49.5,28.579,0,45.237-69.675,40.228-113.277-65.4,0-50.606a6.059,6.059,0,0,0,2.607-.713c1.712-.989,1.712-2.59,0-3.579a6.851,6.851,0,0,0-6.2,0c-1.713.989-1.713,2.59,0,3.579a6.058,6.058,0,0,0,2.607.713v51.171l.245.142,68.134,39.338H738l-40.151-23.181c1.24-.989,1.1-2.374-.441-3.265a6.854,6.854,0,0,0-6.2,0c-1.711.988-1.711,2.59,0,3.579a6.927,6.927,0,0,0,5.657.254l40.869,23.6h51.595V182.9l56.06,32.366v57.452L726.528,341.337l-15.937-9.2,84.11-48.564a6.931,6.931,0,0,0,5.659-.254c1.711-.988,1.711-2.59,0-3.579a6.855,6.855,0,0,0-6.2,0c-1.543.891-1.681,2.278-.441,3.267l-84.113,48.562-15.387-8.884L794.834,264.6l27.346,0a2.514,2.514,0,0,0,1.2,1.3,6.851,6.851,0,0,0,6.2,0c1.712-.988,1.712-2.591,0-3.579a6.851,6.851,0,0,0-6.2,0,2.514,2.514,0,0,0-1.2,1.3H794.571l-.114.066L693.236,322.117l-6.211-3.586-.245.14-4.535,2.619-24.107-13.918,0-19.367,19.917-11.5v.052l31.251,0,34.408-19.864a6.928,6.928,0,0,0,5.657-.256c1.711-.988,1.711-2.59,0-3.577a6.849,6.849,0,0,0-6.2,0c-1.543.891-1.681,2.276-.441,3.265l-33.688,19.451H679.668l58.548-33.8a6.9,6.9,0,0,0,5.778-.2c1.712-.988,1.712-2.59,0-3.577a6.84,6.84,0,0,0-6.2,0c-1.506.868-1.684,2.211-.541,3.2l-73.03,42.164v-9.32l43.449-25.087V231.238l35.376-20.425a6.927,6.927,0,0,0,5.657-.254c1.712-.988,1.712-2.59,0-3.579a6.851,6.851,0,0,0-6.2,0c-1.544.891-1.681,2.278-.441,3.267L706.7,230.673v17.711l-43.451,25.086v10.455l-6.086,3.512v20.5l24.105,13.918L665.422,331l-49.6-28.64,0-32.557L649.5,250.36a6.913,6.913,0,0,0,5.78-.2c1.711-.988,1.711-2.59,0-3.577a6.84,6.84,0,0,0-6.2,0c-1.506.868-1.684,2.211-.541,3.2L615.82,268.673v-26.3l25.853-14.925,0-49.474a6.084,6.084,0,0,0,2.607-.714c1.712-.989,1.712-2.591,0-3.579a6.851,6.851,0,0,0-6.2,0c-1.712.989-1.712,2.59,0,3.579a6.085,6.085,0,0,0,2.607.714V226.88L615.82,241.24l0-87.239h-.981l0,148.929,49.6,28.64-17.788,10.269L581.82,304.408l0-89.145-31.163-17.994V163.736L523.143,147.85c1.24-.989,1.1-2.376-.441-3.267a6.854,6.854,0,0,0-6.2,0c-1.711.989-1.711,2.591,0,3.579a6.927,6.927,0,0,0,5.657.254L549.678,164.3l0,33.53,31.165,17.994,0,89.147,64.83,37.431-13.183,7.611-87.5-50.518,0-76.059-.245-.142L467.3,178.584c1.24-.989,1.1-2.376-.441-3.267a6.851,6.851,0,0,0-6.2,0c-1.712.989-1.712,2.59,0,3.579a6.927,6.927,0,0,0,5.657.254l77.694,44.857,0,76.061.245.142L631.5,350.585l-21.365,12.335L464.562,278.872V241.026l-.247-.142L342.443,170.519c1.24-.989,1.1-2.376-.441-3.266a6.843,6.843,0,0,0-6.2,0c-1.711.987-1.711,2.59,0,3.577a6.927,6.927,0,0,0,5.657.254l122.121,70.507v37.846l.245.142,81.634,47.133-64.753,0-74.965-43.28c1.241-.989,1.1-2.376-.441-3.267a6.851,6.851,0,0,0-6.2,0c-1.712.988-1.712,2.59,0,3.579a6.927,6.927,0,0,0,5.657.254L480.443,327.7l66.718,0,62,35.794-24.833,14.337-53.29-30.766H445.47l-97.319-56.187-53.988,0-22.011-12.708c1.24-.989,1.1-2.374-.441-3.266a6.854,6.854,0,0,0-6.2,0c-1.711.988-1.711,2.59,0,3.577a6.928,6.928,0,0,0,5.657.256L293.9,291.855l53.988,0,73.538,42.457H357.907l-30.589-17.66c1.24-.989,1.1-2.376-.441-3.267a6.854,6.854,0,0,0-6.2,0c-1.711.988-1.711,2.59,0,3.579a6.927,6.927,0,0,0,5.657.254l31.309,18.075h65.48l22.081,12.75H530.77l14.911,8.609H509.305l-.114.065-18.245,10.534-76.024,0L393.477,354.87h-43a2.512,2.512,0,0,0-1.2-1.3,6.84,6.84,0,0,0-6.2,0c-1.712.988-1.712,2.59,0,3.577a6.851,6.851,0,0,0,6.2,0,2.512,2.512,0,0,0,1.2-1.3h42.74l21.445,12.381,74.586,0L468.7,380.092a6.931,6.931,0,0,0-5.659.254c-1.711.989-1.711,2.59,0,3.579a6.854,6.854,0,0,0,6.2,0c1.543-.891,1.681-2.276.441-3.265l39.885-23.028h37.812l35.957,20.761-13.286,7.673.735.425L578.6,391l-24.854,0-32.492-18.76c1.24-.989,1.1-2.376-.441-3.267a6.851,6.851,0,0,0-6.2,0c-1.712.989-1.712,2.591,0,3.579a6.93,6.93,0,0,0,5.655.256l33.212,19.173,26.817,0,18.185,10.5L587.3,408.939H567.468l-.114.065-17.326,10H537.014l-29.391-16.97c1.318-.991,1.21-2.413-.364-3.32a6.84,6.84,0,0,0-6.2,0c-1.712.988-1.712,2.59,0,3.577a6.949,6.949,0,0,0,5.561.3l30.128,17.394h13.54l.114-.066,17.326-10H585.6l-35.751,20.64h-19.3l-40.24-23.231H368.964L293.7,363.875c1.3-.991,1.189-2.406-.378-3.311a6.854,6.854,0,0,0-6.2,0c-1.711.989-1.711,2.59,0,3.579a6.946,6.946,0,0,0,5.58.291l76,43.878H490.047l40.24,23.23h19.829l.114-.065,49.24-28.428,12.918,7.457L556.749,442.63H517.507l-32.375-18.693-83.092,0a2.511,2.511,0,0,0-1.2-1.3,6.844,6.844,0,0,0-6.2,0c-1.711.988-1.711,2.59,0,3.577a6.854,6.854,0,0,0,6.2,0,2.519,2.519,0,0,0,1.2-1.3l82.828,0,30.675,17.711H398.455l-.112.065L286.762,507.119a6.927,6.927,0,0,0-5.657.254c-1.712.989-1.712,2.59,0,3.579a6.851,6.851,0,0,0,6.2,0c1.543-.891,1.683-2.276.443-3.266L398.72,443.613H557.013l.114-.065,56.244-32.475,14.676,8.473-77.586,44.8H413.844l-.112.065L294.1,533.477l-139.39,0L73.422,486.545c1.24-.989,1.1-2.374-.443-3.266a6.851,6.851,0,0,0-6.2,0c-1.712.988-1.712,2.59,0,3.579a6.93,6.93,0,0,0,5.656.254l82.01,47.347,139.915,0,.114-.065,119.631-69.069h99.513L367.5,549.688l0,22.207L309.21,605.548a6.934,6.934,0,0,0-5.657.254c-1.711.989-1.711,2.591,0,3.579a6.853,6.853,0,0,0,6.2,0c1.543-.891,1.681-2.278.441-3.266l58.287-33.651,0-22.209,147.107-84.931h34.156l-73.559,42.471v9.36l-35.2,20.323a6.927,6.927,0,0,0-5.657.254c-1.712.987-1.712,2.59,0,3.577a6.839,6.839,0,0,0,6.2,0c1.544-.889,1.683-2.276.443-3.266l19.164-11.064v25.65L350.41,616.556a6.924,6.924,0,0,0-5.656.254c-1.712.988-1.712,2.59,0,3.579a6.851,6.851,0,0,0,6.2,0c1.543-.891,1.681-2.278.441-3.267L462.114,553.2V526.412l15.051-8.69v-9.36l74.164-42.819-.245-.426,77.945-45,14.169,8.179-80.07,46.23,0,76.061L415.858,635.61h1.965l121.928-70.395,0,68.791-2.777,1.6h1.965l1.795-1.037,0-69.925,23.375-13.494,0-76.062,80.07-46.23,12.475,7.2L594.912,471.71l0,41.7.245.142,70.2,40.531v14.139l-39.7,22.92a6.937,6.937,0,0,0-5.656.256c-1.712.989-1.712,2.59,0,3.579a6.851,6.851,0,0,0,6.2,0c1.544-.891,1.683-2.278.441-3.267l39.7-22.92,0-15.275-.245-.142-70.2-40.529V472.279l46.652-26.935v17.371l-21.388,12.347a6.927,6.927,0,0,0-5.657.256c-1.711.987-1.711,2.59,0,3.577a6.844,6.844,0,0,0,6.2,0c1.542-.891,1.681-2.276.441-3.266l21.386-12.348,0-18.5,14.111-8.147,16.685,9.632,0,30.253-31.471,18.17V515.6l.245.142,66.252,38.249c-1.24.989-1.1,2.374.441,3.266a6.84,6.84,0,0,0,6.2,0c1.712-.988,1.712-2.59,0-3.577a6.928,6.928,0,0,0-5.657-.256l-66.5-38.391v-19.78l30.489-17.6V498.5L715.1,522.046c-1.238.989-1.1,2.374.443,3.266a6.855,6.855,0,0,0,6.2,0c1.711-.988,1.711-2.59,0-3.579a6.931,6.931,0,0,0-5.659-.254L675.3,497.934l0-51.1,11.719,6.766.245-.14,19.066-11.008,17.488,10.1,0,24.538L770.3,503.918l0,23.13a6.084,6.084,0,0,0-2.607.713c-1.711.989-1.711,2.591,0,3.579a6.851,6.851,0,0,0,6.2,0c1.712-.987,1.712-2.59,0-3.579a6.1,6.1,0,0,0-2.609-.713v-23.7L724.8,476.516v-23.4l75.248,43.444,0,46.051-40.811,23.562H721.787l-.114.065-64.263,37.1a6.927,6.927,0,0,0-5.657.254c-1.711.989-1.711,2.59,0,3.579a6.851,6.851,0,0,0,6.2,0c1.544-.891,1.683-2.278.443-3.265l63.659-36.756h35.486L639.48,635.312a6.928,6.928,0,0,0-5.657.256c-.023.012-.037.028-.06.042h7.168l160.1-92.434,0-47.186-.247-.142-93.47-53.967,18.81-10.859,159.589,92.138,0,54.979,54.517,31.477c-1.24.988-1.1,2.374.441,3.264a6.843,6.843,0,0,0,6.2,0c1.711-.987,1.711-2.59,0-3.577a6.934,6.934,0,0,0-5.657-.256L886.695,577.57V522.592l-.245-.142-159.342-92,17.91-10.341L902.84,511.232h94.118l4.418,2.549v-1.133l-4.155-2.4H903.1L769.878,433.333h26.794l45.472,26.252,35.024,0,.114-.065,48.576-28.045a6.934,6.934,0,0,0,5.657-.256c1.711-.988,1.711-2.59,0-3.579a6.855,6.855,0,0,0-6.2,0c-1.543.891-1.681,2.278-.441,3.267L876.905,458.6l-34.5,0-45.47-26.252H768.178L746,419.546l47.806-27.6,13.594,7.848v20.6l34.532,19.938c-1.238.989-1.1,2.374.443,3.266a6.851,6.851,0,0,0,6.2,0c1.712-.989,1.712-2.59,0-3.579a6.927,6.927,0,0,0-5.657-.254l-34.534-19.938,0-19.467,36.827,21.262h17.439l.114-.065,20.792-12a6.923,6.923,0,0,0,5.655-.256c1.713-.988,1.713-2.59,0-3.577a6.85,6.85,0,0,0-6.2,0c-1.544.891-1.683,2.278-.441,3.266L862.387,420.64H845.473L794.79,391.377,804,386.061l-.737-.425L774.61,369.1l13.761-7.944h20.806l14.888,8.6c-1.185.986-1.026,2.348.5,3.227a6.84,6.84,0,0,0,6.2,0c1.712-.988,1.712-2.59,0-3.577a6.915,6.915,0,0,0-5.724-.224l-15.6-9.005H790.071l35.087-20.257,82.558,47.666h59.406l.114-.065,33.448-19.311a6.436,6.436,0,0,0,.692.193V363.88a5.23,5.23,0,0,0-1.233.488c-1.542.891-1.681,2.276-.443,3.266L966.86,386.6H907.981l-63.672-36.761,27.251,0L898.2,365.216c-1.24.989-1.1,2.374.441,3.265a6.843,6.843,0,0,0,6.2,0c1.711-.988,1.711-2.59,0-3.577a6.927,6.927,0,0,0-5.657-.256l-27.358-15.8-29.214,0-16.469-9.508,41.912-24.2h133.323v-.982l-131.623,0,16.627-9.6,99.161,0,.114-.066,15.722-9.077v-1.133l-16.1,9.294-99.161,0-.114.065L773.628,368.529l-12.475-7.2L879.3,293.116l86.4,0,.114-.065,35.562-20.531v-1.133l-35.938,20.749-86.4,0-.114.065L760.17,360.76,746,352.58,976.416,219.549l0-48.252,24.958-14.41ZM802.034,386.061l-115.012,66.4-115.007-66.4,115.01-66.4Z" transform="translate(49.185 35.337)"/></g></svg>